<?xml version="1.0" encoding="UTF-8"?>
<svg width="48px" height="20px" viewBox="0 0 48 20" version="1.1" xmlns="http://www.w3.org/2000/svg" xmlns:xlink="http://www.w3.org/1999/xlink">
    <!-- Generator: Sketch 43.2 (39069) - http://www.bohemiancoding.com/sketch -->
    <title>icon_GraphQL</title>
    <desc>Created with Sketch.</desc>
    <g id="Page-1" stroke="none" stroke-width="1" fill="none" fill-rule="evenodd">
        <g id="GraphQL-Logo" transform="translate(3.000000, 0.000000)" fill-rule="nonzero" fill="#DEDFDF">
            <rect id="Rectangle-path" transform="translate(5.873743, 8.225956) rotate(-149.999272) translate(-5.873743, -8.225956) " x="5.373771" y="0.251866906" width="1" height="15.9465951"></rect>
            <rect id="Rectangle-path" x="0.962944962" y="13.8363038" width="17.5097917" height="1"></rect>
            <rect id="Rectangle-path" transform="translate(5.960170, 16.171005) rotate(-149.999272) translate(-5.960170, -16.171005) " x="0.905050794" y="15.6710166" width="10.1131446" height="1"></rect>
            <rect id="Rectangle-path" transform="translate(13.568396, 4.168277) rotate(-149.999272) translate(-13.568396, -4.168277) " x="8.51327669" y="3.66828856" width="10.1131446" height="1"></rect>
            <rect id="Rectangle-path" transform="translate(5.894663, 4.214329) rotate(-120.000728) translate(-5.894663, -4.214329) " x="5.39466311" y="-0.390917071" width="1" height="9.21049045"></rect>
            <rect id="Rectangle-path" transform="translate(13.605244, 8.197949) rotate(-120.000728) translate(-13.605244, -8.197949) " x="4.85054162" y="7.69794912" width="17.5094065" height="1"></rect>
            <rect id="Rectangle-path" x="1.65721394" y="5.63629754" width="1" height="9.21069308"></rect>
            <rect id="Rectangle-path" x="16.8764647" y="5.63629754" width="1" height="9.21069308"></rect>
            <rect id="Rectangle-path" transform="translate(13.471724, 16.180968) rotate(-120.000728) translate(-13.471724, -16.180968) " x="12.9717236" y="12.1756486" width="1" height="8.01063737"></rect>
            <path d="M18.9866051,15.1158433 C18.4618033,15.947295 17.2919327,16.231084 16.3789964,15.7531237 C15.46606,15.2751634 15.1544589,14.2097102 15.6792607,13.3782585 C16.2040624,12.5468067 17.373933,12.2630178 18.2868694,12.7409781 C19.2052725,13.2239171 19.5168735,14.2843915 18.9866051,15.1158433" id="Shape"></path>
            <path d="M3.75642094,7.10502968 C3.23161919,7.93648144 2.06174863,8.22027036 1.14881225,7.74231007 C0.235875871,7.26434978 -0.0757251675,6.19889663 0.449076582,5.36744488 C0.973878332,4.53599312 2.1437489,4.2522042 3.05668528,4.73016449 C3.96962165,5.21310353 4.28122269,6.27357793 3.75642094,7.10502968" id="Shape"></path>
            <path d="M0.454543267,15.1158433 C-0.0702584826,14.2843915 0.241342556,13.2239171 1.15427893,12.7409781 C2.06721531,12.2630178 3.23161919,12.5468067 3.76188763,13.3782585 C4.28668938,14.2097102 3.97508834,15.2701846 3.06215196,15.7531237 C2.1437489,16.231084 0.979345017,15.947295 0.454543267,15.1158433" id="Shape"></path>
            <path d="M15.6847274,7.10502968 C15.1599256,6.27357793 15.4715267,5.21310353 16.384463,4.73016449 C17.2973994,4.2522042 18.4618033,4.53599312 18.9920717,5.36744488 C19.5168735,6.19889663 19.2052725,7.25937102 18.2923361,7.74231007 C17.3793997,8.22027036 16.2095291,7.93648144 15.6847274,7.10502968" id="Shape"></path>
            <path d="M9.72057416,19.9900425 C8.66550398,19.9900425 7.81270113,19.213357 7.81270113,18.2524577 C7.81270113,17.2915584 8.66550398,16.5148729 9.72057416,16.5148729 C10.7756443,16.5148729 11.6284472,17.2915584 11.6284472,18.2524577 C11.6284472,19.2083783 10.7756443,19.9900425 9.72057416,19.9900425" id="Shape"></path>
            <path d="M9.72057416,3.96841528 C8.66550398,3.96841528 7.81270113,3.19172981 7.81270113,2.23083048 C7.81270113,1.26993114 8.66550398,0.493245672 9.72057416,0.493245672 C10.7756443,0.493245672 11.6284472,1.26993114 11.6284472,2.23083048 C11.6284472,3.19172981 10.7756443,3.96841528 9.72057416,3.96841528" id="Shape"></path>
        </g>
        <g id="GraphQL-Logo" transform="translate(27.000000, 0.000000)" fill-rule="nonzero" fill="#E535AB">
            <rect id="Rectangle-path" transform="translate(5.873743, 8.225956) rotate(-149.999272) translate(-5.873743, -8.225956) " x="5.373771" y="0.251866906" width="1" height="15.9465951"></rect>
            <rect id="Rectangle-path" x="0.962944962" y="13.8363038" width="17.5097917" height="1"></rect>
            <rect id="Rectangle-path" transform="translate(5.960170, 16.171005) rotate(-149.999272) translate(-5.960170, -16.171005) " x="0.905050794" y="15.6710166" width="10.1131446" height="1"></rect>
            <rect id="Rectangle-path" transform="translate(13.568396, 4.168277) rotate(-149.999272) translate(-13.568396, -4.168277) " x="8.51327669" y="3.66828856" width="10.1131446" height="1"></rect>
            <rect id="Rectangle-path" transform="translate(5.894663, 4.214329) rotate(-120.000728) translate(-5.894663, -4.214329) " x="5.39466311" y="-0.390917071" width="1" height="9.21049045"></rect>
            <rect id="Rectangle-path" transform="translate(13.605244, 8.197949) rotate(-120.000728) translate(-13.605244, -8.197949) " x="4.85054162" y="7.69794912" width="17.5094065" height="1"></rect>
            <rect id="Rectangle-path" x="1.65721394" y="5.63629754" width="1" height="9.21069308"></rect>
            <rect id="Rectangle-path" x="16.8764647" y="5.63629754" width="1" height="9.21069308"></rect>
            <rect id="Rectangle-path" transform="translate(13.471724, 16.180968) rotate(-120.000728) translate(-13.471724, -16.180968) " x="12.9717236" y="12.1756486" width="1" height="8.01063737"></rect>
            <path d="M18.9866051,15.1158433 C18.4618033,15.947295 17.2919327,16.231084 16.3789964,15.7531237 C15.46606,15.2751634 15.1544589,14.2097102 15.6792607,13.3782585 C16.2040624,12.5468067 17.373933,12.2630178 18.2868694,12.7409781 C19.2052725,13.2239171 19.5168735,14.2843915 18.9866051,15.1158433" id="Shape"></path>
            <path d="M3.75642094,7.10502968 C3.23161919,7.93648144 2.06174863,8.22027036 1.14881225,7.74231007 C0.235875871,7.26434978 -0.0757251675,6.19889663 0.449076582,5.36744488 C0.973878332,4.53599312 2.1437489,4.2522042 3.05668528,4.73016449 C3.96962165,5.21310353 4.28122269,6.27357793 3.75642094,7.10502968" id="Shape"></path>
            <path d="M0.454543267,15.1158433 C-0.0702584826,14.2843915 0.241342556,13.2239171 1.15427893,12.7409781 C2.06721531,12.2630178 3.23161919,12.5468067 3.76188763,13.3782585 C4.28668938,14.2097102 3.97508834,15.2701846 3.06215196,15.7531237 C2.1437489,16.231084 0.979345017,15.947295 0.454543267,15.1158433" id="Shape"></path>
            <path d="M15.6847274,7.10502968 C15.1599256,6.27357793 15.4715267,5.21310353 16.384463,4.73016449 C17.2973994,4.2522042 18.4618033,4.53599312 18.9920717,5.36744488 C19.5168735,6.19889663 19.2052725,7.25937102 18.2923361,7.74231007 C17.3793997,8.22027036 16.2095291,7.93648144 15.6847274,7.10502968" id="Shape"></path>
            <path d="M9.72057416,19.9900425 C8.66550398,19.9900425 7.81270113,19.213357 7.81270113,18.2524577 C7.81270113,17.2915584 8.66550398,16.5148729 9.72057416,16.5148729 C10.7756443,16.5148729 11.6284472,17.2915584 11.6284472,18.2524577 C11.6284472,19.2083783 10.7756443,19.9900425 9.72057416,19.9900425" id="Shape"></path>
            <path d="M9.72057416,3.96841528 C8.66550398,3.96841528 7.81270113,3.19172981 7.81270113,2.23083048 C7.81270113,1.26993114 8.66550398,0.493245672 9.72057416,0.493245672 C10.7756443,0.493245672 11.6284472,1.26993114 11.6284472,2.23083048 C11.6284472,3.19172981 10.7756443,3.96841528 9.72057416,3.96841528" id="Shape"></path>
        </g>
    </g>
</svg>