<svg version="1.1" xmlns="http://www.w3.org/2000/svg" xmlns:xlink="http://www.w3.org/1999/xlink" width="476" height="388"><defs/><g><g transform="translate(-142,-102) scale(1,1)"><rect fill="#C0C0C0" stroke="none" x="159" y="431" width="50" height="44" opacity="0.2"/></g><g transform="translate(-142,-102) scale(1,1)"><rect fill="#ffffff" stroke="none" x="152" y="424" width="50" height="44"/></g><g transform="translate(-142,-102) scale(1,1)"><path fill="none" stroke="#000000" d="M 152 424 L 202 424 L 202 468 L 152 468 L 152 424 Z Z" stroke-miterlimit="10"/></g><g transform="translate(-142,-102) scale(1,1)"><path fill="none" stroke="#000000" d="M 152 449 L 202 449" stroke-miterlimit="10"/></g><g transform="translate(-142,-102) scale(1,1)"><path fill="none" stroke="#000000" d="M 152 459 L 202 459" stroke-miterlimit="10"/></g><g transform="translate(-142,-102) scale(1,1)"><g><path fill="none" stroke="none"/><text fill="#000000" stroke="none" font-family="Arial" font-size="13px" font-style="normal" font-weight="bold" text-decoration="none" x="157" y="443.5">Class3</text></g></g><g transform="translate(-142,-102) scale(1,1)"><rect fill="#C0C0C0" stroke="none" x="455" y="415" width="160" height="72" opacity="0.2"/></g><g transform="translate(-142,-102) scale(1,1)"><rect fill="#ffffff" stroke="none" x="448" y="408" width="160" height="72"/></g><g transform="translate(-142,-102) scale(1,1)"><path fill="none" stroke="#000000" d="M 448 408 L 608 408 L 608 480 L 448 480 L 448 408 Z Z" stroke-miterlimit="10"/></g><g transform="translate(-142,-102) scale(1,1)"><path fill="none" stroke="#000000" d="M 448 433 L 608 433" stroke-miterlimit="10"/></g><g transform="translate(-142,-102) scale(1,1)"><path fill="none" stroke="#000000" d="M 448 471 L 608 471" stroke-miterlimit="10"/></g><g transform="translate(-142,-102) scale(1,1)"><g><path fill="none" stroke="none"/><text fill="#000000" stroke="none" font-family="Arial" font-size="13px" font-style="normal" font-weight="bold" text-decoration="none" x="508" y="427.5">Class4</text></g></g><g transform="translate(-142,-102) scale(1,1)"><g><path fill="none" stroke="none"/><text fill="#000000" stroke="none" font-family="Arial" font-size="13px" font-style="normal" font-weight="normal" text-decoration="none" x="453" y="450.5">+name: String</text></g></g><g transform="translate(-142,-102) scale(1,1)"><g><path fill="none" stroke="none"/><text fill="#000000" stroke="none" font-family="Arial" font-size="13px" font-style="normal" font-weight="normal" text-decoration="none" x="453" y="465.5">+gender: String</text></g></g><g transform="translate(-142,-102) scale(1,1)"><path fill="none" stroke="#000000" d="M 203 446 L 447 444" stroke-miterlimit="10"/></g><g transform="translate(-142,-102) scale(1,1)"><g><path fill="none" stroke="none"/><text fill="#000000" stroke="none" font-family="Arial" font-size="13px" font-style="normal" font-weight="normal" text-decoration="none" x="225" y="435.5">+toC3</text></g></g><g transform="translate(-142,-102) scale(1,1)"><g><path fill="none" stroke="none"/><text fill="#000000" stroke="none" font-family="Arial" font-size="13px" font-style="normal" font-weight="normal" text-decoration="none" x="220.5" y="464.5">1</text></g></g><g transform="translate(-142,-102) scale(1,1)"><g><path fill="none" stroke="none"/><text fill="#000000" stroke="none" font-family="Arial" font-size="13px" font-style="normal" font-weight="normal" text-decoration="none" x="402.5" y="435.5">+toC4</text></g></g><g transform="translate(-142,-102) scale(1,1)"><g><path fill="none" stroke="none"/><text fill="#000000" stroke="none" font-family="Arial" font-size="13px" font-style="normal" font-weight="normal" text-decoration="none" x="414.5" y="462.5">1..*</text></g></g><g transform="translate(-142,-102) scale(1,1)"><rect fill="#C0C0C0" stroke="none" x="319" y="119" width="50" height="44" opacity="0.2"/></g><g transform="translate(-142,-102) scale(1,1)"><rect fill="#ffffff" stroke="none" x="312" y="112" width="50" height="44"/></g><g transform="translate(-142,-102) scale(1,1)"><path fill="none" stroke="#000000" d="M 312 112 L 362 112 L 362 156 L 312 156 L 312 112 Z Z" stroke-miterlimit="10"/></g><g transform="translate(-142,-102) scale(1,1)"><path fill="none" stroke="#000000" d="M 312 137 L 362 137" stroke-miterlimit="10"/></g><g transform="translate(-142,-102) scale(1,1)"><path fill="none" stroke="#000000" d="M 312 147 L 362 147" stroke-miterlimit="10"/></g><g transform="translate(-142,-102) scale(1,1)"><g><path fill="none" stroke="none"/><text fill="#000000" stroke="none" font-family="Arial" font-size="13px" font-style="normal" font-weight="bold" text-decoration="none" x="317" y="131.5">Class1</text></g></g><g transform="translate(-142,-102) scale(1,1)"><rect fill="#C0C0C0" stroke="none" x="439" y="279" width="50" height="44" opacity="0.2"/></g><g transform="translate(-142,-102) scale(1,1)"><rect fill="#ffffff" stroke="none" x="432" y="272" width="50" height="44"/></g><g transform="translate(-142,-102) scale(1,1)"><path fill="none" stroke="#000000" d="M 432 272 L 482 272 L 482 316 L 432 316 L 432 272 Z Z" stroke-miterlimit="10"/></g><g transform="translate(-142,-102) scale(1,1)"><path fill="none" stroke="#000000" d="M 432 297 L 482 297" stroke-miterlimit="10"/></g><g transform="translate(-142,-102) scale(1,1)"><path fill="none" stroke="#000000" d="M 432 307 L 482 307" stroke-miterlimit="10"/></g><g transform="translate(-142,-102) scale(1,1)"><g><path fill="none" stroke="none"/><text fill="#000000" stroke="none" font-family="Arial" font-size="13px" font-style="normal" font-weight="bold" text-decoration="none" x="437" y="291.5">Class2</text></g></g><g transform="translate(-142,-102) scale(1,1)"><rect fill="#C0C0C0" stroke="none" x="183" y="279" width="50" height="44" opacity="0.2"/></g><g transform="translate(-142,-102) scale(1,1)"><rect fill="#ffffff" stroke="none" x="176" y="272" width="50" height="44"/></g><g transform="translate(-142,-102) scale(1,1)"><path fill="none" stroke="#000000" d="M 176 272 L 226 272 L 226 316 L 176 316 L 176 272 Z Z" stroke-miterlimit="10"/></g><g transform="translate(-142,-102) scale(1,1)"><path fill="none" stroke="#000000" d="M 176 297 L 226 297" stroke-miterlimit="10"/></g><g transform="translate(-142,-102) scale(1,1)"><path fill="none" stroke="#000000" d="M 176 307 L 226 307" stroke-miterlimit="10"/></g><g transform="translate(-142,-102) scale(1,1)"><g><path fill="none" stroke="none"/><text fill="#000000" stroke="none" font-family="Arial" font-size="13px" font-style="normal" font-weight="bold" text-decoration="none" x="181" y="291.5">Class5</text></g></g><g transform="translate(-142,-102) scale(1,1)"><path fill="none" stroke="#000000" d="M 354 157 L 440 271" stroke-miterlimit="10"/></g><g transform="translate(-142,-102) scale(1,1)"><g><path fill="none" stroke="none"/><text fill="#000000" stroke="none" font-family="Arial" font-size="13px" font-style="normal" font-weight="normal" text-decoration="none" x="398.5" y="212.5">+query</text></g></g><g transform="translate(-142,-102) scale(1,1)"><g><path fill="none" stroke="none"/><text fill="#000000" stroke="none" font-family="Arial" font-size="13px" font-style="normal" font-weight="normal" text-decoration="none" x="405.5" y="267.5">1..*</text></g></g><g transform="translate(-142,-102) scale(1,1)"><path fill="none" stroke="#000000" d="M 317 157 L 221 271" stroke-miterlimit="10"/></g><g transform="translate(-142,-102) scale(1,1)"><path fill="none" stroke="#000000" d="M 224.32623487831444 260.51495533942347 L 221 271 L 230.76604941881283 265.9379570577379" stroke-miterlimit="10"/></g><g transform="translate(-142,-102) scale(1,1)"><g><path fill="none" stroke="none"/><text fill="#000000" stroke="none" font-family="Arial" font-size="13px" font-style="normal" font-weight="normal" text-decoration="none" x="262.5" y="235.5">+mutation</text></g></g><g transform="translate(-142,-102) scale(1,1)"><path fill="#ffffff" stroke="none" d="M 408 136 L 491 136 L 501 146 L 501 174 L 408 174 L 408 136"/></g><g transform="translate(-142,-102) scale(1,1)"><path fill="none" stroke="#000000" d="M 408 136 L 491 136 L 501 146 L 501 174 L 408 174 L 408 136 L 408 136" stroke-miterlimit="10"/></g><g transform="translate(-142,-102) scale(1,1)"><path fill="none" stroke="#000000" d="M 491 136 L 491 146 L 501 146 L 491 136" stroke-miterlimit="10"/></g><g transform="translate(-142,-102) scale(1,1)"><g><path fill="none" stroke="none"/><text fill="#000000" stroke="none" font-family="Arial" font-size="13px" font-style="normal" font-weight="normal" text-decoration="none" x="413" y="154">Bi-directional</text><text fill="#000000" stroke="none" font-family="Arial" font-size="13px" font-style="normal" font-weight="normal" text-decoration="none" x="413" y="167">association</text></g></g></g></svg>