<svg version="1.1" xmlns="http://www.w3.org/2000/svg" xmlns:xlink="http://www.w3.org/1999/xlink" width="466" height="289"><defs/><g><g transform="translate(-158,-173) scale(1,1)"><rect fill="#C0C0C0" stroke="none" x="239" y="231" width="50" height="44" opacity="0.2"/></g><g transform="translate(-158,-173) scale(1,1)"><rect fill="#ffffff" stroke="none" x="232" y="224" width="50" height="44"/></g><g transform="translate(-158,-173) scale(1,1)"><path fill="none" stroke="#000000" d="M 232 224 L 282 224 L 282 268 L 232 268 L 232 224 Z Z" stroke-miterlimit="10"/></g><g transform="translate(-158,-173) scale(1,1)"><path fill="none" stroke="#000000" d="M 232 249 L 282 249" stroke-miterlimit="10"/></g><g transform="translate(-158,-173) scale(1,1)"><path fill="none" stroke="#000000" d="M 232 259 L 282 259" stroke-miterlimit="10"/></g><g transform="translate(-158,-173) scale(1,1)"><g><path fill="none" stroke="none"/><text fill="#000000" stroke="none" font-family="Arial" font-size="13px" font-style="normal" font-weight="bold" text-decoration="none" x="240.5" y="243.5">Team</text></g></g><g transform="translate(-158,-173) scale(1,1)"><rect fill="#C0C0C0" stroke="none" x="231" y="415" width="54" height="44" opacity="0.2"/></g><g transform="translate(-158,-173) scale(1,1)"><rect fill="#ffffff" stroke="none" x="224" y="408" width="54" height="44"/></g><g transform="translate(-158,-173) scale(1,1)"><path fill="none" stroke="#000000" d="M 224 408 L 278 408 L 278 452 L 224 452 L 224 408 Z Z" stroke-miterlimit="10"/></g><g transform="translate(-158,-173) scale(1,1)"><path fill="none" stroke="#000000" d="M 224 433 L 278 433" stroke-miterlimit="10"/></g><g transform="translate(-158,-173) scale(1,1)"><path fill="none" stroke="#000000" d="M 224 443 L 278 443" stroke-miterlimit="10"/></g><g transform="translate(-158,-173) scale(1,1)"><g><path fill="none" stroke="none"/><text fill="#000000" stroke="none" font-family="Arial" font-size="13px" font-style="normal" font-weight="bold" text-decoration="none" x="231" y="427.5">Airplan</text></g></g><g transform="translate(-158,-173) scale(1,1)"><rect fill="#C0C0C0" stroke="none" x="479" y="231" width="71" height="44" opacity="0.2"/></g><g transform="translate(-158,-173) scale(1,1)"><rect fill="#ffffff" stroke="none" x="472" y="224" width="71" height="44"/></g><g transform="translate(-158,-173) scale(1,1)"><path fill="none" stroke="#000000" d="M 472 224 L 543 224 L 543 268 L 472 268 L 472 224 Z Z" stroke-miterlimit="10"/></g><g transform="translate(-158,-173) scale(1,1)"><path fill="none" stroke="#000000" d="M 472 249 L 543 249" stroke-miterlimit="10"/></g><g transform="translate(-158,-173) scale(1,1)"><path fill="none" stroke="#000000" d="M 472 259 L 543 259" stroke-miterlimit="10"/></g><g transform="translate(-158,-173) scale(1,1)"><g><path fill="none" stroke="none"/><text fill="#000000" stroke="none" font-family="Arial" font-size="13px" font-style="normal" font-weight="bold" text-decoration="none" x="478.5" y="243.5">Employee</text></g></g><g transform="translate(-158,-173) scale(1,1)"><path fill="none" stroke="#000000" d="M 471 246 L 283 246" stroke-miterlimit="10"/></g><g transform="translate(-158,-173) scale(1,1)"><path fill="#FFFFFF" stroke="none" d="M 293.16267485762415 241.790482243984 L 283 246 L 293.16267485762415 250.209517756016 L 305 246"/></g><g transform="translate(-158,-173) scale(1,1)"><path fill="none" stroke="#000000" d="M 293.16267485762415 241.790482243984 L 283 246 L 293.16267485762415 250.209517756016 L 305 246 L 293.16267485762415 241.790482243984" stroke-miterlimit="10"/></g><g transform="translate(-158,-173) scale(1,1)"><g><path fill="none" stroke="none"/><text fill="#000000" stroke="none" font-family="Arial" font-size="13px" font-style="normal" font-weight="normal" text-decoration="none" x="422.5" y="266.5">+teams</text></g></g><g transform="translate(-158,-173) scale(1,1)"><g><path fill="none" stroke="none"/><text fill="#000000" stroke="none" font-family="Arial" font-size="13px" font-style="normal" font-weight="normal" text-decoration="none" x="438.5" y="239.5">1..*</text></g></g><g transform="translate(-158,-173) scale(1,1)"><g><path fill="none" stroke="none"/><text fill="#000000" stroke="none" font-family="Arial" font-size="13px" font-style="normal" font-weight="normal" text-decoration="none" x="276.5" y="266.5">+members</text></g></g><g transform="translate(-158,-173) scale(1,1)"><g><path fill="none" stroke="none"/><text fill="#000000" stroke="none" font-family="Arial" font-size="13px" font-style="normal" font-weight="normal" text-decoration="none" x="293.5" y="239.5">0..*</text></g></g><g transform="translate(-158,-173) scale(1,1)"><rect fill="#C0C0C0" stroke="none" x="463" y="415" width="81" height="44" opacity="0.2"/></g><g transform="translate(-158,-173) scale(1,1)"><rect fill="#ffffff" stroke="none" x="456" y="408" width="81" height="44"/></g><g transform="translate(-158,-173) scale(1,1)"><path fill="none" stroke="#000000" d="M 456 408 L 537 408 L 537 452 L 456 452 L 456 408 Z Z" stroke-miterlimit="10"/></g><g transform="translate(-158,-173) scale(1,1)"><path fill="none" stroke="#000000" d="M 456 433 L 537 433" stroke-miterlimit="10"/></g><g transform="translate(-158,-173) scale(1,1)"><path fill="none" stroke="#000000" d="M 456 443 L 537 443" stroke-miterlimit="10"/></g><g transform="translate(-158,-173) scale(1,1)"><g><path fill="none" stroke="none"/><text fill="#000000" stroke="none" font-family="Arial" font-size="13px" font-style="normal" font-weight="bold" text-decoration="none" x="463.5" y="427.5">Component</text></g></g><g transform="translate(-158,-173) scale(1,1)"><path fill="none" stroke="#000000" d="M 257 224 L 257 204 L 168 204 L 168 246 L 232 246" stroke-miterlimit="10"/></g><g transform="translate(-158,-173) scale(1,1)"><path fill="#FFFFFF" stroke="none" d="M 221.83732514237585 250.209517756016 L 232 246 L 221.83732514237585 241.790482243984 L 210 246"/></g><g transform="translate(-158,-173) scale(1,1)"><path fill="none" stroke="#000000" d="M 221.83732514237585 250.209517756016 L 232 246 L 221.83732514237585 241.790482243984 L 210 246 L 221.83732514237585 250.209517756016" stroke-miterlimit="10"/></g><g transform="translate(-158,-173) scale(1,1)"><g><path fill="none" stroke="none"/><text fill="#000000" stroke="none" font-family="Arial" font-size="13px" font-style="normal" font-weight="normal" text-decoration="none" x="226.5" y="195.5">+subteams</text></g></g><g transform="translate(-158,-173) scale(1,1)"><g><path fill="none" stroke="none"/><text fill="#000000" stroke="none" font-family="Arial" font-size="13px" font-style="normal" font-weight="normal" text-decoration="none" x="261.5" y="219.5">0..*</text></g></g><g transform="translate(-158,-173) scale(1,1)"><g><path fill="none" stroke="none"/><text fill="#000000" stroke="none" font-family="Arial" font-size="13px" font-style="normal" font-weight="normal" text-decoration="none" x="183.5" y="237.5">+parent</text></g></g><g transform="translate(-158,-173) scale(1,1)"><g><path fill="none" stroke="none"/><text fill="#000000" stroke="none" font-family="Arial" font-size="13px" font-style="normal" font-weight="normal" text-decoration="none" x="198.5" y="264.5">0..1</text></g></g><g transform="translate(-158,-173) scale(1,1)"><path fill="none" stroke="#000000" d="M 256 269 L 252 407" stroke-miterlimit="10"/></g><g transform="translate(-158,-173) scale(1,1)"><path fill="none" stroke="#000000" d="M 248.0866960845581 396.71962780511393 L 252 407 L 256.50219715667276 396.9635553724216" stroke-miterlimit="10"/></g><g transform="translate(-158,-173) scale(1,1)"><g><path fill="none" stroke="none"/><text fill="#000000" stroke="none" font-family="Arial" font-size="13px" font-style="normal" font-weight="normal" text-decoration="none" x="198.5" y="339.5">+builds</text></g></g><g transform="translate(-158,-173) scale(1,1)"><g><path fill="none" stroke="none"/><text fill="#000000" stroke="none" font-family="Arial" font-size="13px" font-style="normal" font-weight="normal" text-decoration="none" x="238.5" y="296.5">1</text></g></g><g transform="translate(-158,-173) scale(1,1)"><g><path fill="none" stroke="none"/><text fill="#000000" stroke="none" font-family="Arial" font-size="13px" font-style="normal" font-weight="normal" text-decoration="none" x="229.5" y="390.5">1..*</text></g></g><g transform="translate(-158,-173) scale(1,1)"><path fill="none" stroke="#000000" d="M 455 430 L 279 430" stroke-miterlimit="10"/></g><g transform="translate(-158,-173) scale(1,1)"><path fill="#000000" stroke="none" d="M 289.16267485762415 425.790482243984 L 279 430 L 289.16267485762415 434.209517756016 L 301 430"/></g><g transform="translate(-158,-173) scale(1,1)"><path fill="none" stroke="#000000" d="M 289.16267485762415 425.790482243984 L 279 430 L 289.16267485762415 434.209517756016 L 301 430 L 289.16267485762415 425.790482243984" stroke-miterlimit="10"/></g><g transform="translate(-158,-173) scale(1,1)"><g><path fill="none" stroke="none"/><text fill="#000000" stroke="none" font-family="Arial" font-size="13px" font-style="normal" font-weight="normal" text-decoration="none" x="422.5" y="423.5">1..*</text></g></g><g transform="translate(-158,-173) scale(1,1)"><g><path fill="none" stroke="none"/><text fill="#000000" stroke="none" font-family="Arial" font-size="13px" font-style="normal" font-weight="normal" text-decoration="none" x="296.5" y="423.5">1</text></g></g><g transform="translate(-158,-173) scale(1,1)"><path fill="none" stroke="#000000" d="M 496 408 L 496 388 L 566 388 L 566 430 L 537 430" stroke-miterlimit="10"/></g><g transform="translate(-158,-173) scale(1,1)"><path fill="#000000" stroke="none" d="M 547.1626748576241 425.790482243984 L 537 430 L 547.1626748576241 434.209517756016 L 559 430"/></g><g transform="translate(-158,-173) scale(1,1)"><path fill="none" stroke="#000000" d="M 547.1626748576241 425.790482243984 L 537 430 L 547.1626748576241 434.209517756016 L 559 430 L 547.1626748576241 425.790482243984" stroke-miterlimit="10"/></g><g transform="translate(-158,-173) scale(1,1)"><g><path fill="none" stroke="none"/><text fill="#000000" stroke="none" font-family="Arial" font-size="13px" font-style="normal" font-weight="normal" text-decoration="none" x="454.5" y="379.5">+subassembly</text></g></g><g transform="translate(-158,-173) scale(1,1)"><g><path fill="none" stroke="none"/><text fill="#000000" stroke="none" font-family="Arial" font-size="13px" font-style="normal" font-weight="normal" text-decoration="none" x="469.5" y="404.5">0..*</text></g></g><g transform="translate(-158,-173) scale(1,1)"><g><path fill="none" stroke="none"/><text fill="#000000" stroke="none" font-family="Arial" font-size="13px" font-style="normal" font-weight="normal" text-decoration="none" x="550.5" y="449.5">+assembly</text></g></g><g transform="translate(-158,-173) scale(1,1)"><g><path fill="none" stroke="none"/><text fill="#000000" stroke="none" font-family="Arial" font-size="13px" font-style="normal" font-weight="normal" text-decoration="none" x="574.5" y="428.5">0..*</text></g></g></g></svg>