<svg version="1.1" xmlns="http://www.w3.org/2000/svg" xmlns:xlink="http://www.w3.org/1999/xlink" width="501" height="341"><defs/><g><g transform="translate(-62,-54) scale(1,1)"><rect fill="#C0C0C0" stroke="none" x="207" y="71" width="152" height="57" opacity="0.2"/></g><g transform="translate(-62,-54) scale(1,1)"><rect fill="#ffffff" stroke="none" x="200" y="64" width="152" height="57"/></g><g transform="translate(-62,-54) scale(1,1)"><path fill="none" stroke="#000000" d="M 200 64 L 352 64 L 352 121 L 200 121 L 200 64 Z Z" stroke-miterlimit="10"/></g><g transform="translate(-62,-54) scale(1,1)"><path fill="none" stroke="#000000" d="M 200 89 L 352 89" stroke-miterlimit="10"/></g><g transform="translate(-62,-54) scale(1,1)"><path fill="none" stroke="#000000" d="M 200 112 L 352 112" stroke-miterlimit="10"/></g><g transform="translate(-62,-54) scale(1,1)"><g><path fill="none" stroke="none"/><text fill="#000000" stroke="none" font-family="Arial" font-size="13px" font-style="normal" font-weight="bold" text-decoration="none" x="251" y="83.5">Vehicule</text></g></g><g transform="translate(-62,-54) scale(1,1)"><g><path fill="none" stroke="none"/><text fill="#000000" stroke="none" font-family="Arial" font-size="13px" font-style="normal" font-weight="normal" text-decoration="none" x="205" y="106.5">+id: ID</text></g></g><g transform="translate(-62,-54) scale(1,1)"><rect fill="#C0C0C0" stroke="none" x="295" y="327" width="102" height="57" opacity="0.2"/></g><g transform="translate(-62,-54) scale(1,1)"><rect fill="#ffffff" stroke="none" x="288" y="320" width="102" height="57"/></g><g transform="translate(-62,-54) scale(1,1)"><path fill="none" stroke="#000000" d="M 288 320 L 390 320 L 390 377 L 288 377 L 288 320 Z Z" stroke-miterlimit="10"/></g><g transform="translate(-62,-54) scale(1,1)"><path fill="none" stroke="#000000" d="M 288 345 L 390 345" stroke-miterlimit="10"/></g><g transform="translate(-62,-54) scale(1,1)"><path fill="none" stroke="#000000" d="M 288 368 L 390 368" stroke-miterlimit="10"/></g><g transform="translate(-62,-54) scale(1,1)"><g><path fill="none" stroke="none"/><text fill="#000000" stroke="none" font-family="Arial" font-size="13px" font-style="normal" font-weight="bold" text-decoration="none" x="329" y="339.5">Car</text></g></g><g transform="translate(-62,-54) scale(1,1)"><g><path fill="none" stroke="none"/><text fill="#000000" stroke="none" font-family="Arial" font-size="13px" font-style="normal" font-weight="normal" text-decoration="none" x="293" y="362.5">+noOfDoors: Int</text></g></g><g transform="translate(-62,-54) scale(1,1)"><rect fill="#C0C0C0" stroke="none" x="79" y="335" width="166" height="57" opacity="0.2"/></g><g transform="translate(-62,-54) scale(1,1)"><rect fill="#ffffff" stroke="none" x="72" y="328" width="166" height="57"/></g><g transform="translate(-62,-54) scale(1,1)"><path fill="none" stroke="#000000" d="M 72 328 L 238 328 L 238 385 L 72 385 L 72 328 Z Z" stroke-miterlimit="10"/></g><g transform="translate(-62,-54) scale(1,1)"><path fill="none" stroke="#000000" d="M 72 353 L 238 353" stroke-miterlimit="10"/></g><g transform="translate(-62,-54) scale(1,1)"><path fill="none" stroke="#000000" d="M 72 376 L 238 376" stroke-miterlimit="10"/></g><g transform="translate(-62,-54) scale(1,1)"><g><path fill="none" stroke="none"/><text fill="#000000" stroke="none" font-family="Arial" font-size="13px" font-style="normal" font-weight="bold" text-decoration="none" x="138.5" y="347.5">Truck</text></g></g><g transform="translate(-62,-54) scale(1,1)"><g><path fill="none" stroke="none"/><text fill="#000000" stroke="none" font-family="Arial" font-size="13px" font-style="normal" font-weight="normal" text-decoration="none" x="77" y="370.5">+numberOfCountainers: Int</text></g></g><g transform="translate(-62,-54) scale(1,1)"><path fill="none" stroke="#000000" d="M 360 319 L 409 250" stroke-miterlimit="10"/></g><g transform="translate(-62,-54) scale(1,1)"><path fill="#FFFFFF" stroke="none" d="M 404.09588148782575 271.44643610529613 L 409 250 L 390.3673441419602 261.697184946638"/></g><g transform="translate(-62,-54) scale(1,1)"><path fill="none" stroke="#000000" d="M 404.09588148782575 271.44643610529613 L 409 250 L 390.3673441419602 261.697184946638 L 404.09588148782575 271.44643610529613" stroke-miterlimit="10"/></g><g transform="translate(-62,-54) scale(1,1)"><path fill="none" stroke="#000000" d="M 155 327 L 157 258" stroke-miterlimit="10"/></g><g transform="translate(-62,-54) scale(1,1)"><path fill="#FFFFFF" stroke="none" d="M 164.8266078308838 278.5607443897722 L 157 258 L 147.9956056866545 278.07288925515684"/></g><g transform="translate(-62,-54) scale(1,1)"><path fill="none" stroke="#000000" d="M 164.8266078308838 278.5607443897722 L 157 258 L 147.9956056866545 278.07288925515684 L 164.8266078308838 278.5607443897722" stroke-miterlimit="10"/></g><g transform="translate(-62,-54) scale(1,1)"><rect fill="#C0C0C0" stroke="none" x="87" y="207" width="154" height="57" opacity="0.2"/></g><g transform="translate(-62,-54) scale(1,1)"><rect fill="#ffffff" stroke="none" x="80" y="200" width="154" height="57"/></g><g transform="translate(-62,-54) scale(1,1)"><path fill="none" stroke="#000000" d="M 80 200 L 234 200 L 234 257 L 80 257 L 80 200 Z Z" stroke-miterlimit="10"/></g><g transform="translate(-62,-54) scale(1,1)"><path fill="none" stroke="#000000" d="M 80 225 L 234 225" stroke-miterlimit="10"/></g><g transform="translate(-62,-54) scale(1,1)"><path fill="none" stroke="#000000" d="M 80 248 L 234 248" stroke-miterlimit="10"/></g><g transform="translate(-62,-54) scale(1,1)"><g><path fill="none" stroke="none"/><text fill="#000000" stroke="none" font-family="Arial" font-size="13px" font-style="normal" font-weight="bold" text-decoration="none" x="90.5" y="219.5">TransportationVehicule</text></g></g><g transform="translate(-62,-54) scale(1,1)"><g><path fill="none" stroke="none"/><text fill="#000000" stroke="none" font-family="Arial" font-size="13px" font-style="normal" font-weight="normal" text-decoration="none" x="85" y="242.5">+loadCapacity: Int</text></g></g><g transform="translate(-62,-54) scale(1,1)"><path fill="none" stroke="#000000" d="M 182 199 L 250 122" stroke-miterlimit="10"/></g><g transform="translate(-62,-54) scale(1,1)"><path fill="#FFFFFF" stroke="none" d="M 242.8562854723398 142.80786732818376 L 250 122 L 230.23524692484187 131.66201510441937"/></g><g transform="translate(-62,-54) scale(1,1)"><path fill="none" stroke="#000000" d="M 242.8562854723398 142.80786732818376 L 250 122 L 230.23524692484187 131.66201510441937 L 242.8562854723398 142.80786732818376" stroke-miterlimit="10"/></g><g transform="translate(-62,-54) scale(1,1)"><rect fill="#C0C0C0" stroke="none" x="359" y="199" width="156" height="57" opacity="0.2"/></g><g transform="translate(-62,-54) scale(1,1)"><rect fill="#ffffff" stroke="none" x="352" y="192" width="156" height="57"/></g><g transform="translate(-62,-54) scale(1,1)"><path fill="none" stroke="#000000" d="M 352 192 L 508 192 L 508 249 L 352 249 L 352 192 Z Z" stroke-miterlimit="10"/></g><g transform="translate(-62,-54) scale(1,1)"><path fill="none" stroke="#000000" d="M 352 217 L 508 217" stroke-miterlimit="10"/></g><g transform="translate(-62,-54) scale(1,1)"><path fill="none" stroke="#000000" d="M 352 240 L 508 240" stroke-miterlimit="10"/></g><g transform="translate(-62,-54) scale(1,1)"><g><path fill="none" stroke="none"/><text fill="#000000" stroke="none" font-family="Arial" font-size="13px" font-style="normal" font-weight="bold" text-decoration="none" x="374" y="211.5">PassengerVehicule</text></g></g><g transform="translate(-62,-54) scale(1,1)"><g><path fill="none" stroke="none"/><text fill="#000000" stroke="none" font-family="Arial" font-size="13px" font-style="normal" font-weight="normal" text-decoration="none" x="357" y="234.5">+nrOfPasssengers: Int[1]</text></g></g><g transform="translate(-62,-54) scale(1,1)"><path fill="none" stroke="#000000" d="M 395 191 L 312 122" stroke-miterlimit="10"/></g><g transform="translate(-62,-54) scale(1,1)"><path fill="#FFFFFF" stroke="none" d="M 333.0118496735547 128.5193690872613 L 312 122 L 322.24773129878247 141.46751148010333"/></g><g transform="translate(-62,-54) scale(1,1)"><path fill="none" stroke="#000000" d="M 333.0118496735547 128.5193690872613 L 312 122 L 322.24773129878247 141.46751148010333 L 333.0118496735547 128.5193690872613" stroke-miterlimit="10"/></g><g transform="translate(-62,-54) scale(1,1)"><rect fill="#C0C0C0" stroke="none" x="431" y="327" width="129" height="57" opacity="0.2"/></g><g transform="translate(-62,-54) scale(1,1)"><rect fill="#ffffff" stroke="none" x="424" y="320" width="129" height="57"/></g><g transform="translate(-62,-54) scale(1,1)"><path fill="none" stroke="#000000" d="M 424 320 L 553 320 L 553 377 L 424 377 L 424 320 Z Z" stroke-miterlimit="10"/></g><g transform="translate(-62,-54) scale(1,1)"><path fill="none" stroke="#000000" d="M 424 345 L 553 345" stroke-miterlimit="10"/></g><g transform="translate(-62,-54) scale(1,1)"><path fill="none" stroke="#000000" d="M 424 368 L 553 368" stroke-miterlimit="10"/></g><g transform="translate(-62,-54) scale(1,1)"><g><path fill="none" stroke="none"/><text fill="#000000" stroke="none" font-family="Arial" font-size="13px" font-style="normal" font-weight="bold" text-decoration="none" x="475.5" y="339.5">Bike</text></g></g><g transform="translate(-62,-54) scale(1,1)"><g><path fill="none" stroke="none"/><text fill="#000000" stroke="none" font-family="Arial" font-size="13px" font-style="normal" font-weight="normal" text-decoration="none" x="429" y="362.5">+saddleHeight: Float</text></g></g><g transform="translate(-62,-54) scale(1,1)"><path fill="none" stroke="#000000" d="M 475 319 L 444 250" stroke-miterlimit="10"/></g><g transform="translate(-62,-54) scale(1,1)"><path fill="#FFFFFF" stroke="none" d="M 460.0092122423359 265.08990137077916 L 444 250 L 444.65005095129624 271.9903941247245"/></g><g transform="translate(-62,-54) scale(1,1)"><path fill="none" stroke="#000000" d="M 460.0092122423359 265.08990137077916 L 444 250 L 444.65005095129624 271.9903941247245 L 460.0092122423359 265.08990137077916" stroke-miterlimit="10"/></g></g></svg>