<svg version="1.1" xmlns="http://www.w3.org/2000/svg" xmlns:xlink="http://www.w3.org/1999/xlink" width="176" height="107"><defs/><g><g transform="translate(-270,-150) scale(1,1)"><rect fill="#C0C0C0" stroke="none" x="287" y="167" width="156" height="87" opacity="0.2"/></g><g transform="translate(-270,-150) scale(1,1)"><rect fill="#ffffff" stroke="none" x="280" y="160" width="156" height="87"/></g><g transform="translate(-270,-150) scale(1,1)"><path fill="none" stroke="#000000" d="M 280 160 L 436 160 L 436 247 L 280 247 L 280 160 Z Z" stroke-miterlimit="10"/></g><g transform="translate(-270,-150) scale(1,1)"><path fill="none" stroke="#000000" d="M 280 185 L 436 185" stroke-miterlimit="10"/></g><g transform="translate(-270,-150) scale(1,1)"><path fill="none" stroke="#000000" d="M 280 238 L 436 238" stroke-miterlimit="10"/></g><g transform="translate(-270,-150) scale(1,1)"><g><path fill="none" stroke="none"/><text fill="#000000" stroke="none" font-family="Arial" font-size="13px" font-style="normal" font-weight="bold" text-decoration="none" x="332.5" y="179.5">MyClass</text></g></g><g transform="translate(-270,-150) scale(1,1)"><g><path fill="none" stroke="none"/><text fill="#000000" stroke="none" font-family="Arial" font-size="13px" font-style="normal" font-weight="normal" text-decoration="none" x="285" y="202.5">+v1: String = "helloworld"</text></g></g><g transform="translate(-270,-150) scale(1,1)"><g><path fill="none" stroke="none"/><text fill="#000000" stroke="none" font-family="Arial" font-size="13px" font-style="normal" font-weight="normal" text-decoration="none" x="285" y="217.5">+v2: Int = 5</text></g></g><g transform="translate(-270,-150) scale(1,1)"><g><path fill="none" stroke="none"/><text fill="#000000" stroke="none" font-family="Arial" font-size="13px" font-style="normal" font-weight="normal" text-decoration="none" x="285" y="232.5">+v3[1]</text></g></g></g></svg>