<svg version="1.1" xmlns="http://www.w3.org/2000/svg" xmlns:xlink="http://www.w3.org/1999/xlink" width="353" height="92"><defs/><g><g transform="translate(-150,-198) scale(1,1)"><rect fill="#C0C0C0" stroke="none" x="167" y="215" width="333" height="72" opacity="0.2"/></g><g transform="translate(-150,-198) scale(1,1)"><rect fill="#ffffff" stroke="none" x="160" y="208" width="333" height="72"/></g><g transform="translate(-150,-198) scale(1,1)"><path fill="none" stroke="#000000" d="M 160 208 L 493 208 L 493 280 L 160 280 L 160 208 Z Z" stroke-miterlimit="10"/></g><g transform="translate(-150,-198) scale(1,1)"><path fill="none" stroke="#000000" d="M 160 233 L 493 233" stroke-miterlimit="10"/></g><g transform="translate(-150,-198) scale(1,1)"><path fill="none" stroke="#000000" d="M 160 271 L 493 271" stroke-miterlimit="10"/></g><g transform="translate(-150,-198) scale(1,1)"><g><path fill="none" stroke="none"/><text fill="#000000" stroke="none" font-family="Arial" font-size="13px" font-style="normal" font-weight="bold" text-decoration="none" x="284.5" y="227.5">DirectiveClass</text></g></g><g transform="translate(-150,-198) scale(1,1)"><g><path fill="none" stroke="none"/><text fill="#000000" stroke="none" font-family="Arial" font-size="13px" font-style="normal" font-weight="normal" text-decoration="none" x="165" y="250.5">+name: String {fake="type: firstName"}</text></g></g><g transform="translate(-150,-198) scale(1,1)"><g><path fill="none" stroke="none"/><text fill="#000000" stroke="none" font-family="Arial" font-size="13px" font-style="normal" font-weight="normal" text-decoration="none" x="165" y="265.5">+gender: String {examples="values: ["male", "female"]"}</text></g></g></g></svg>