<svg version="1.1" xmlns="http://www.w3.org/2000/svg" xmlns:xlink="http://www.w3.org/1999/xlink" width="549" height="414"><defs/><g><g transform="translate(-70,-86) scale(1,1)"><rect fill="#C0C0C0" stroke="none" x="87" y="103" width="50" height="44" opacity="0.2"/></g><g transform="translate(-70,-86) scale(1,1)"><rect fill="#ffffff" stroke="none" x="80" y="96" width="50" height="44"/></g><g transform="translate(-70,-86) scale(1,1)"><path fill="none" stroke="#000000" d="M 80 96 L 130 96 L 130 140 L 80 140 L 80 96 Z Z" stroke-miterlimit="10"/></g><g transform="translate(-70,-86) scale(1,1)"><path fill="none" stroke="#000000" d="M 80 121 L 130 121" stroke-miterlimit="10"/></g><g transform="translate(-70,-86) scale(1,1)"><path fill="none" stroke="#000000" d="M 80 131 L 130 131" stroke-miterlimit="10"/></g><g transform="translate(-70,-86) scale(1,1)"><g><path fill="none" stroke="none"/><text fill="#000000" stroke="none" font-family="Arial" font-size="13px" font-style="normal" font-weight="bold" text-decoration="none" x="85" y="115.5">Class1</text></g></g><g transform="translate(-70,-86) scale(1,1)"><rect fill="#C0C0C0" stroke="none" x="279" y="103" width="50" height="44" opacity="0.2"/></g><g transform="translate(-70,-86) scale(1,1)"><rect fill="#ffffff" stroke="none" x="272" y="96" width="50" height="44"/></g><g transform="translate(-70,-86) scale(1,1)"><path fill="none" stroke="#000000" d="M 272 96 L 322 96 L 322 140 L 272 140 L 272 96 Z Z" stroke-miterlimit="10"/></g><g transform="translate(-70,-86) scale(1,1)"><path fill="none" stroke="#000000" d="M 272 121 L 322 121" stroke-miterlimit="10"/></g><g transform="translate(-70,-86) scale(1,1)"><path fill="none" stroke="#000000" d="M 272 131 L 322 131" stroke-miterlimit="10"/></g><g transform="translate(-70,-86) scale(1,1)"><g><path fill="none" stroke="none"/><text fill="#000000" stroke="none" font-family="Arial" font-size="13px" font-style="normal" font-weight="bold" text-decoration="none" x="277" y="115.5">Class2</text></g></g><g transform="translate(-70,-86) scale(1,1)"><rect fill="#C0C0C0" stroke="none" x="383" y="103" width="57" height="44" opacity="0.2"/></g><g transform="translate(-70,-86) scale(1,1)"><rect fill="#ffffff" stroke="none" x="376" y="96" width="57" height="44"/></g><g transform="translate(-70,-86) scale(1,1)"><path fill="none" stroke="#000000" d="M 376 96 L 433 96 L 433 140 L 376 140 L 376 96 Z Z" stroke-miterlimit="10"/></g><g transform="translate(-70,-86) scale(1,1)"><path fill="none" stroke="#000000" d="M 376 121 L 433 121" stroke-miterlimit="10"/></g><g transform="translate(-70,-86) scale(1,1)"><path fill="none" stroke="#000000" d="M 376 131 L 433 131" stroke-miterlimit="10"/></g><g transform="translate(-70,-86) scale(1,1)"><g><path fill="none" stroke="none"/><text fill="#000000" stroke="none" font-family="Arial" font-size="13px" font-style="normal" font-weight="bold" text-decoration="none" x="383.5" y="115.5">ClassB</text></g></g><g transform="translate(-70,-86) scale(1,1)"><rect fill="#C0C0C0" stroke="none" x="559" y="103" width="57" height="44" opacity="0.2"/></g><g transform="translate(-70,-86) scale(1,1)"><rect fill="#ffffff" stroke="none" x="552" y="96" width="57" height="44"/></g><g transform="translate(-70,-86) scale(1,1)"><path fill="none" stroke="#000000" d="M 552 96 L 609 96 L 609 140 L 552 140 L 552 96 Z Z" stroke-miterlimit="10"/></g><g transform="translate(-70,-86) scale(1,1)"><path fill="none" stroke="#000000" d="M 552 121 L 609 121" stroke-miterlimit="10"/></g><g transform="translate(-70,-86) scale(1,1)"><path fill="none" stroke="#000000" d="M 552 131 L 609 131" stroke-miterlimit="10"/></g><g transform="translate(-70,-86) scale(1,1)"><g><path fill="none" stroke="none"/><text fill="#000000" stroke="none" font-family="Arial" font-size="13px" font-style="normal" font-weight="bold" text-decoration="none" x="559.5" y="115.5">ClassA</text></g></g><g transform="translate(-70,-86) scale(1,1)"><path fill="none" stroke="#000000" d="M 131 118 L 271 118" stroke-miterlimit="10"/></g><g transform="translate(-70,-86) scale(1,1)"><path fill="none" stroke="#000000" d="M 260.83732514237585 122.20951775601598 L 271 118 L 260.83732514237585 113.79048224398402" stroke-miterlimit="10"/></g><g transform="translate(-70,-86) scale(1,1)"><g><path fill="none" stroke="none"/><text fill="#000000" stroke="none" font-family="Arial" font-size="13px" font-style="normal" font-weight="normal" text-decoration="none" x="191.5" y="109.5">+r1</text></g></g><g transform="translate(-70,-86) scale(1,1)"><path fill="none" stroke="#000000" d="M 551 118 L 434 118" stroke-miterlimit="10"/></g><g transform="translate(-70,-86) scale(1,1)"><path fill="none" stroke="#000000" d="M 444.16267485762415 113.79048224398402 L 434 118 L 444.16267485762415 122.20951775601598" stroke-miterlimit="10"/></g><g transform="translate(-70,-86) scale(1,1)"><g><path fill="none" stroke="none"/><text fill="#000000" stroke="none" font-family="Arial" font-size="13px" font-style="normal" font-weight="normal" text-decoration="none" x="481.5" y="139.5">+r2</text></g></g><g transform="translate(-70,-86) scale(1,1)"><rect fill="#C0C0C0" stroke="none" x="327" y="287" width="107" height="71" opacity="0.2"/></g><g transform="translate(-70,-86) scale(1,1)"><rect fill="#ffffff" stroke="none" x="320" y="280" width="107" height="71"/></g><g transform="translate(-70,-86) scale(1,1)"><path fill="none" stroke="#000000" d="M 320 280 L 427 280 L 427 351 L 320 351 L 320 280 Z Z" stroke-miterlimit="10"/></g><g transform="translate(-70,-86) scale(1,1)"><path fill="#ffffff" stroke="none" d="M 401 297 C 401 292.0294368 405.0294368 288 410 288 C 414.9705632 288 419 292.0294368 419 297 C 419 301.9705632 414.9705632 306 410 306 C 405.0294368 306 401 301.9705632 401 297 Z"/></g><g transform="translate(-70,-86) scale(1,1)"><path fill="none" stroke="#000000" d="M 401 297 C 401 292.0294368 405.0294368 288 410 288 C 414.9705632 288 419 292.0294368 419 297 C 419 301.9705632 414.9705632 306 410 306 C 405.0294368 306 401 301.9705632 401 297 Z" stroke-miterlimit="10"/></g><g transform="translate(-70,-86) scale(1,1)"><path fill="none" stroke="#000000" d="M 320 318 L 427 318" stroke-miterlimit="10"/></g><g transform="translate(-70,-86) scale(1,1)"><g><path fill="none" stroke="none"/><text fill="#000000" stroke="none" font-family="Arial" font-size="13px" font-style="normal" font-weight="normal" text-decoration="none" x="329.5" y="297.5">«interface»</text></g></g><g transform="translate(-70,-86) scale(1,1)"><g><path fill="none" stroke="none"/><text fill="#000000" stroke="none" font-family="Arial" font-size="13px" font-style="normal" font-weight="bold" text-decoration="none" x="356" y="312.5">I1</text></g></g><g transform="translate(-70,-86) scale(1,1)"><g><path fill="none" stroke="none"/><text fill="#000000" stroke="none" font-family="Arial" font-size="13px" font-style="normal" font-weight="normal" text-decoration="none" x="325" y="335.5">+f1: Int</text></g></g><g transform="translate(-70,-86) scale(1,1)"><path fill="none" stroke="#000000" d="M 411 279 L 556 141" stroke-miterlimit="10"/></g><g transform="translate(-70,-86) scale(1,1)"><path fill="none" stroke="#000000" d="M 551.5404726648941 151.05547691297846 L 556 141 L 545.736342067228 144.95693389369166" stroke-miterlimit="10"/></g><g transform="translate(-70,-86) scale(1,1)"><g><path fill="none" stroke="none"/><text fill="#000000" stroke="none" font-family="Arial" font-size="13px" font-style="normal" font-weight="normal" text-decoration="none" x="443.5" y="205.5">+i1ToC22</text></g></g><g transform="translate(-70,-86) scale(1,1)"><path fill="none" stroke="#000000" d="M 324 279 L 131 137" stroke-miterlimit="10"/></g><g transform="translate(-70,-86) scale(1,1)"><path fill="none" stroke="#000000" d="M 141.6804670143966 139.63203806096834 L 131 137 L 136.69109869086728 146.41336261337088" stroke-miterlimit="10"/></g><g transform="translate(-70,-86) scale(1,1)"><g><path fill="none" stroke="none"/><text fill="#000000" stroke="none" font-family="Arial" font-size="13px" font-style="normal" font-weight="normal" text-decoration="none" x="193.5" y="226.5">+i1ToC1</text></g></g><g transform="translate(-70,-86) scale(1,1)"><rect fill="#C0C0C0" stroke="none" x="327" y="439" width="107" height="58" opacity="0.2"/></g><g transform="translate(-70,-86) scale(1,1)"><rect fill="#ffffff" stroke="none" x="320" y="432" width="107" height="58"/></g><g transform="translate(-70,-86) scale(1,1)"><path fill="none" stroke="#000000" d="M 320 432 L 427 432 L 427 490 L 320 490 L 320 432 Z Z" stroke-miterlimit="10"/></g><g transform="translate(-70,-86) scale(1,1)"><path fill="#ffffff" stroke="none" d="M 401 449 C 401 444.0294368 405.0294368 440 410 440 C 414.9705632 440 419 444.0294368 419 449 C 419 453.9705632 414.9705632 458 410 458 C 405.0294368 458 401 453.9705632 401 449 Z"/></g><g transform="translate(-70,-86) scale(1,1)"><path fill="none" stroke="#000000" d="M 401 449 C 401 444.0294368 405.0294368 440 410 440 C 414.9705632 440 419 444.0294368 419 449 C 419 453.9705632 414.9705632 458 410 458 C 405.0294368 458 401 453.9705632 401 449 Z" stroke-miterlimit="10"/></g><g transform="translate(-70,-86) scale(1,1)"><path fill="none" stroke="#000000" d="M 320 470 L 427 470" stroke-miterlimit="10"/></g><g transform="translate(-70,-86) scale(1,1)"><g><path fill="none" stroke="none"/><text fill="#000000" stroke="none" font-family="Arial" font-size="13px" font-style="normal" font-weight="normal" text-decoration="none" x="329.5" y="449.5">«interface»</text></g></g><g transform="translate(-70,-86) scale(1,1)"><g><path fill="none" stroke="none"/><text fill="#000000" stroke="none" font-family="Arial" font-size="13px" font-style="normal" font-weight="bold" text-decoration="none" x="356" y="464.5">I2</text></g></g><g transform="translate(-70,-86) scale(1,1)"><path fill="none" stroke="#000000" d="M 373 431 L 373 352" stroke-miterlimit="10"/></g><g transform="translate(-70,-86) scale(1,1)"><path fill="#FFFFFF" stroke="none" d="M 381.419035512032 372.3253497152483 L 373 352 L 364.580964487968 372.3253497152483"/></g><g transform="translate(-70,-86) scale(1,1)"><path fill="none" stroke="#000000" d="M 381.419035512032 372.3253497152483 L 373 352 L 364.580964487968 372.3253497152483 L 381.419035512032 372.3253497152483" stroke-miterlimit="10"/></g></g></svg>