<svg version="1.1" xmlns="http://www.w3.org/2000/svg" xmlns:xlink="http://www.w3.org/1999/xlink" width="311" height="309"><defs/><g><g transform="translate(-142,-38) scale(1,1)"><rect fill="#C0C0C0" stroke="none" x="183" y="287" width="52" height="57" opacity="0.2"/></g><g transform="translate(-142,-38) scale(1,1)"><rect fill="#ffffff" stroke="none" x="176" y="280" width="52" height="57"/></g><g transform="translate(-142,-38) scale(1,1)"><path fill="none" stroke="#000000" d="M 176 280 L 228 280 L 228 337 L 176 337 L 176 280 Z Z" stroke-miterlimit="10"/></g><g transform="translate(-142,-38) scale(1,1)"><path fill="none" stroke="#000000" d="M 176 305 L 228 305" stroke-miterlimit="10"/></g><g transform="translate(-142,-38) scale(1,1)"><path fill="none" stroke="#000000" d="M 176 328 L 228 328" stroke-miterlimit="10"/></g><g transform="translate(-142,-38) scale(1,1)"><g><path fill="none" stroke="none"/><text fill="#000000" stroke="none" font-family="Arial" font-size="13px" font-style="normal" font-weight="bold" text-decoration="none" x="192" y="299.5">Bar</text></g></g><g transform="translate(-142,-38) scale(1,1)"><g><path fill="none" stroke="none"/><text fill="#000000" stroke="none" font-family="Arial" font-size="13px" font-style="normal" font-weight="normal" text-decoration="none" x="181" y="322.5">+is_bar</text></g></g><g transform="translate(-142,-38) scale(1,1)"><rect fill="#C0C0C0" stroke="none" x="343" y="287" width="55" height="57" opacity="0.2"/></g><g transform="translate(-142,-38) scale(1,1)"><rect fill="#ffffff" stroke="none" x="336" y="280" width="55" height="57"/></g><g transform="translate(-142,-38) scale(1,1)"><path fill="none" stroke="#000000" d="M 336 280 L 391 280 L 391 337 L 336 337 L 336 280 Z Z" stroke-miterlimit="10"/></g><g transform="translate(-142,-38) scale(1,1)"><path fill="none" stroke="#000000" d="M 336 305 L 391 305" stroke-miterlimit="10"/></g><g transform="translate(-142,-38) scale(1,1)"><path fill="none" stroke="#000000" d="M 336 328 L 391 328" stroke-miterlimit="10"/></g><g transform="translate(-142,-38) scale(1,1)"><g><path fill="none" stroke="none"/><text fill="#000000" stroke="none" font-family="Arial" font-size="13px" font-style="normal" font-weight="bold" text-decoration="none" x="352" y="299.5">Baz</text></g></g><g transform="translate(-142,-38) scale(1,1)"><g><path fill="none" stroke="none"/><text fill="#000000" stroke="none" font-family="Arial" font-size="13px" font-style="normal" font-weight="normal" text-decoration="none" x="341" y="322.5">+is_baz</text></g></g><g transform="translate(-142,-38) scale(1,1)"><rect fill="#C0C0C0" stroke="none" x="159" y="55" width="107" height="71" opacity="0.2"/></g><g transform="translate(-142,-38) scale(1,1)"><rect fill="#ffffff" stroke="none" x="152" y="48" width="107" height="71"/></g><g transform="translate(-142,-38) scale(1,1)"><path fill="none" stroke="#000000" d="M 152 48 L 259 48 L 259 119 L 152 119 L 152 48 Z Z" stroke-miterlimit="10"/></g><g transform="translate(-142,-38) scale(1,1)"><path fill="#ffffff" stroke="none" d="M 233 65 C 233 60.0294368 237.0294368 56 242 56 C 246.9705632 56 251 60.0294368 251 65 C 251 69.9705632 246.9705632 74 242 74 C 237.0294368 74 233 69.9705632 233 65 Z"/></g><g transform="translate(-142,-38) scale(1,1)"><path fill="none" stroke="#000000" d="M 233 65 C 233 60.0294368 237.0294368 56 242 56 C 246.9705632 56 251 60.0294368 251 65 C 251 69.9705632 246.9705632 74 242 74 C 237.0294368 74 233 69.9705632 233 65 Z" stroke-miterlimit="10"/></g><g transform="translate(-142,-38) scale(1,1)"><path fill="none" stroke="#000000" d="M 152 86 L 259 86" stroke-miterlimit="10"/></g><g transform="translate(-142,-38) scale(1,1)"><g><path fill="none" stroke="none"/><text fill="#000000" stroke="none" font-family="Arial" font-size="13px" font-style="normal" font-weight="normal" text-decoration="none" x="161.5" y="65.5">«interface»</text></g></g><g transform="translate(-142,-38) scale(1,1)"><g><path fill="none" stroke="none"/><text fill="#000000" stroke="none" font-family="Arial" font-size="13px" font-style="normal" font-weight="bold" text-decoration="none" x="182.5" y="80.5">Foo</text></g></g><g transform="translate(-142,-38) scale(1,1)"><g><path fill="none" stroke="none"/><text fill="#000000" stroke="none" font-family="Arial" font-size="13px" font-style="normal" font-weight="normal" text-decoration="none" x="157" y="103.5">+is_foo</text></g></g><g transform="translate(-142,-38) scale(1,1)"><rect fill="#C0C0C0" stroke="none" x="343" y="55" width="107" height="60" opacity="0.2"/></g><g transform="translate(-142,-38) scale(1,1)"><rect fill="#ffffff" stroke="none" x="336" y="48" width="107" height="60"/></g><g transform="translate(-142,-38) scale(1,1)"><path fill="none" stroke="#000000" d="M 336 48 L 443 48 L 443 108 L 336 108 L 336 48 Z Z" stroke-miterlimit="10"/></g><g transform="translate(-142,-38) scale(1,1)"><path fill="#ffffff" stroke="none" d="M 417 65 C 417 60.0294368 421.0294368 56 426 56 C 430.9705632 56 435 60.0294368 435 65 C 435 69.9705632 430.9705632 74 426 74 C 421.0294368 74 417 69.9705632 417 65 Z"/></g><g transform="translate(-142,-38) scale(1,1)"><path fill="none" stroke="#000000" d="M 417 65 C 417 60.0294368 421.0294368 56 426 56 C 430.9705632 56 435 60.0294368 435 65 C 435 69.9705632 430.9705632 74 426 74 C 421.0294368 74 417 69.9705632 417 65 Z" stroke-miterlimit="10"/></g><g transform="translate(-142,-38) scale(1,1)"><path fill="none" stroke="#000000" d="M 336 86 L 443 86" stroke-miterlimit="10"/></g><g transform="translate(-142,-38) scale(1,1)"><g><path fill="none" stroke="none"/><text fill="#000000" stroke="none" font-family="Arial" font-size="13px" font-style="normal" font-weight="normal" text-decoration="none" x="345.5" y="65.5">«interface»</text></g></g><g transform="translate(-142,-38) scale(1,1)"><g><path fill="none" stroke="none"/><text fill="#000000" stroke="none" font-family="Arial" font-size="13px" font-style="normal" font-weight="bold" text-decoration="none" x="365.5" y="80.5">Goo</text></g></g><g transform="translate(-142,-38) scale(1,1)"><g><path fill="none" stroke="none"/><text fill="#000000" stroke="none" font-family="Arial" font-size="13px" font-style="normal" font-weight="normal" text-decoration="none" x="341" y="103.5">+is_goo</text></g></g><g transform="translate(-142,-38) scale(1,1)"><path fill="none" stroke="#000000" d="M 202 279 L 205 120" stroke-miterlimit="10" stroke-dasharray="3"/></g><g transform="translate(-142,-38) scale(1,1)"><path fill="#FFFFFF" stroke="none" d="M 213.0341084092694 140.48055424221002 L 205 120 L 196.19903374985665 140.16291132410788"/></g><g transform="translate(-142,-38) scale(1,1)"><path fill="none" stroke="#000000" d="M 213.0341084092694 140.48055424221002 L 205 120 L 196.19903374985665 140.16291132410788 L 213.0341084092694 140.48055424221002" stroke-miterlimit="10"/></g><g transform="translate(-142,-38) scale(1,1)"><path fill="none" stroke="#000000" d="M 343 279 L 231 120" stroke-miterlimit="10" stroke-dasharray="3"/></g><g transform="translate(-142,-38) scale(1,1)"><path fill="#FFFFFF" stroke="none" d="M 249.58774645823712 131.76841882345684 L 231 120 L 235.82199281368597 141.46505032150543"/></g><g transform="translate(-142,-38) scale(1,1)"><path fill="none" stroke="#000000" d="M 249.58774645823712 131.76841882345684 L 231 120 L 235.82199281368597 141.46505032150543 L 249.58774645823712 131.76841882345684" stroke-miterlimit="10"/></g><g transform="translate(-142,-38) scale(1,1)"><path fill="none" stroke="#000000" d="M 366 279 L 385 109" stroke-miterlimit="10" stroke-dasharray="3"/></g><g transform="translate(-142,-38) scale(1,1)"><path fill="#FFFFFF" stroke="none" d="M 391.10934024658604 130.1347098809386 L 385 109 L 374.37545924171485 128.2644525921589"/></g><g transform="translate(-142,-38) scale(1,1)"><path fill="none" stroke="#000000" d="M 391.10934024658604 130.1347098809386 L 385 109 L 374.37545924171485 128.2644525921589 L 391.10934024658604 130.1347098809386" stroke-miterlimit="10"/></g></g></svg>