<svg version="1.1" xmlns="http://www.w3.org/2000/svg" xmlns:xlink="http://www.w3.org/1999/xlink" width="425" height="110"><defs/><g><g transform="translate(-142,-182) scale(1,1)"><rect fill="#C0C0C0" stroke="none" x="463" y="199" width="101" height="37" opacity="0.2"/></g><g transform="translate(-142,-182) scale(1,1)"><rect fill="#ffffff" stroke="none" x="456" y="192" width="101" height="37"/></g><g transform="translate(-142,-182) scale(1,1)"><path fill="none" stroke="#000000" d="M 456 192 L 557 192 L 557 229 L 456 229 L 456 192 Z Z" stroke-miterlimit="10"/></g><g transform="translate(-142,-182) scale(1,1)"><g><path fill="none" stroke="none"/><text fill="#000000" stroke="none" font-family="Arial" font-size="13px" font-style="normal" font-weight="normal" text-decoration="none" x="460.5" y="209.5">«primitiveType»</text></g></g><g transform="translate(-142,-182) scale(1,1)"><g><path fill="none" stroke="none"/><text fill="#000000" stroke="none" font-family="Arial" font-size="13px" font-style="normal" font-weight="bold" text-decoration="none" x="491" y="224.5">UUID</text></g></g><g transform="translate(-142,-182) scale(1,1)"><rect fill="#C0C0C0" stroke="none" x="319" y="199" width="101" height="37" opacity="0.2"/></g><g transform="translate(-142,-182) scale(1,1)"><rect fill="#ffffff" stroke="none" x="312" y="192" width="101" height="37"/></g><g transform="translate(-142,-182) scale(1,1)"><path fill="none" stroke="#000000" d="M 312 192 L 413 192 L 413 229 L 312 229 L 312 192 Z Z" stroke-miterlimit="10"/></g><g transform="translate(-142,-182) scale(1,1)"><g><path fill="none" stroke="none"/><text fill="#000000" stroke="none" font-family="Arial" font-size="13px" font-style="normal" font-weight="normal" text-decoration="none" x="316.5" y="209.5">«primitiveType»</text></g></g><g transform="translate(-142,-182) scale(1,1)"><g><path fill="none" stroke="none"/><text fill="#000000" stroke="none" font-family="Arial" font-size="13px" font-style="normal" font-weight="bold" text-decoration="none" x="349" y="224.5">Date</text></g></g><g transform="translate(-142,-182) scale(1,1)"><rect fill="#C0C0C0" stroke="none" x="159" y="199" width="96" height="90" opacity="0.2"/></g><g transform="translate(-142,-182) scale(1,1)"><rect fill="#ffffff" stroke="none" x="152" y="192" width="96" height="90"/></g><g transform="translate(-142,-182) scale(1,1)"><path fill="none" stroke="#000000" d="M 152 192 L 248 192 L 248 282 L 152 282 L 152 192 Z Z" stroke-miterlimit="10"/></g><g transform="translate(-142,-182) scale(1,1)"><path fill="none" stroke="#000000" d="M 152 230 L 248 230" stroke-miterlimit="10"/></g><g transform="translate(-142,-182) scale(1,1)"><g><path fill="none" stroke="none"/><text fill="#000000" stroke="none" font-family="Arial" font-size="13px" font-style="normal" font-weight="normal" text-decoration="none" x="157.5" y="209.5">«enumeration»</text></g></g><g transform="translate(-142,-182) scale(1,1)"><g><path fill="none" stroke="none"/><text fill="#000000" stroke="none" font-family="Arial" font-size="13px" font-style="normal" font-weight="bold" text-decoration="none" x="160" y="224.5">Enumeration1</text></g></g><g transform="translate(-142,-182) scale(1,1)"><g><path fill="none" stroke="none"/><text fill="#000000" stroke="none" font-family="Arial" font-size="13px" font-style="normal" font-weight="normal" text-decoration="none" x="157" y="247.5">L1</text></g></g><g transform="translate(-142,-182) scale(1,1)"><g><path fill="none" stroke="none"/><text fill="#000000" stroke="none" font-family="Arial" font-size="13px" font-style="normal" font-weight="normal" text-decoration="none" x="157" y="262.5">L2</text></g></g><g transform="translate(-142,-182) scale(1,1)"><g><path fill="none" stroke="none"/><text fill="#000000" stroke="none" font-family="Arial" font-size="13px" font-style="normal" font-weight="normal" text-decoration="none" x="157" y="277.5">L3</text></g></g></g></svg>