<svg version="1.1" xmlns="http://www.w3.org/2000/svg" xmlns:xlink="http://www.w3.org/1999/xlink" width="680" height="500"><defs/><g><g transform="translate(-46,-110) scale(1,1)"><rect fill="#C0C0C0" stroke="none" x="327" y="127" width="77" height="57" opacity="0.2"/></g><g transform="translate(-46,-110) scale(1,1)"><rect fill="#ffffff" stroke="none" x="320" y="120" width="77" height="57"/></g><g transform="translate(-46,-110) scale(1,1)"><path fill="none" stroke="#000000" d="M 320 120 L 397 120 L 397 177 L 320 177 L 320 120 Z Z" stroke-miterlimit="10"/></g><g transform="translate(-46,-110) scale(1,1)"><path fill="none" stroke="#000000" d="M 320 158 L 397 158" stroke-miterlimit="10"/></g><g transform="translate(-46,-110) scale(1,1)"><path fill="none" stroke="#000000" d="M 320 168 L 397 168" stroke-miterlimit="10"/></g><g transform="translate(-46,-110) scale(1,1)"><g><path fill="none" stroke="none"/><text fill="#000000" stroke="none" font-family="Arial" font-size="13px" font-style="normal" font-weight="normal" text-decoration="none" x="328.5" y="137.5">«schema»</text></g></g><g transform="translate(-46,-110) scale(1,1)"><g><path fill="none" stroke="none"/><text fill="#000000" stroke="none" font-family="Arial" font-size="13px" font-style="normal" font-weight="bold" text-decoration="none" x="325.5" y="152.5">MySchema</text></g></g><g transform="translate(-46,-110) scale(1,1)"><rect fill="#C0C0C0" stroke="none" x="87" y="287" width="546" height="90" opacity="0.2"/></g><g transform="translate(-46,-110) scale(1,1)"><rect fill="#ffffff" stroke="none" x="80" y="280" width="546" height="90"/></g><g transform="translate(-46,-110) scale(1,1)"><path fill="none" stroke="#000000" d="M 80 280 L 626 280 L 626 370 L 80 370 L 80 280 Z Z" stroke-miterlimit="10"/></g><g transform="translate(-46,-110) scale(1,1)"><path fill="none" stroke="#000000" d="M 80 305 L 626 305" stroke-miterlimit="10"/></g><g transform="translate(-46,-110) scale(1,1)"><path fill="none" stroke="#000000" d="M 80 315 L 626 315" stroke-miterlimit="10"/></g><g transform="translate(-46,-110) scale(1,1)"><g><path fill="none" stroke="none"/><text fill="#000000" stroke="none" font-family="Arial" font-size="13px" font-style="normal" font-weight="bold" text-decoration="none" x="314.5" y="299.5">RootMutation</text></g></g><g transform="translate(-46,-110) scale(1,1)"><g><path fill="none" stroke="none"/><text fill="#000000" stroke="none" font-family="Arial" font-size="13px" font-style="normal" font-weight="normal" text-decoration="none" x="85" y="332.5">+createTodo(input: CreateTodoInput[1]): CreateTodoPayload</text></g></g><g transform="translate(-46,-110) scale(1,1)"><g><path fill="none" stroke="none"/><text fill="#000000" stroke="none" font-family="Arial" font-size="13px" font-style="normal" font-weight="normal" text-decoration="none" x="85" y="347.5">+toggleTodoCompleted(input: ToggleTodoCompletedInput[1]): ToggleTodoCompletedPayload</text></g></g><g transform="translate(-46,-110) scale(1,1)"><rect fill="#C0C0C0" stroke="none" x="119" y="535" width="112" height="72" opacity="0.2"/></g><g transform="translate(-46,-110) scale(1,1)"><rect fill="#ffffff" stroke="none" x="112" y="528" width="112" height="72"/></g><g transform="translate(-46,-110) scale(1,1)"><path fill="none" stroke="#000000" d="M 112 528 L 224 528 L 224 600 L 112 600 L 112 528 Z Z" stroke-miterlimit="10"/></g><g transform="translate(-46,-110) scale(1,1)"><path fill="none" stroke="#000000" d="M 112 566 L 224 566" stroke-miterlimit="10"/></g><g transform="translate(-46,-110) scale(1,1)"><g><path fill="none" stroke="none"/><text fill="#000000" stroke="none" font-family="Arial" font-size="13px" font-style="normal" font-weight="normal" text-decoration="none" x="147" y="545.5">«input»</text></g></g><g transform="translate(-46,-110) scale(1,1)"><g><path fill="none" stroke="none"/><text fill="#000000" stroke="none" font-family="Arial" font-size="13px" font-style="normal" font-weight="bold" text-decoration="none" x="120" y="560.5">CreateTodoInput</text></g></g><g transform="translate(-46,-110) scale(1,1)"><g><path fill="none" stroke="none"/><text fill="#000000" stroke="none" font-family="Arial" font-size="13px" font-style="normal" font-weight="normal" text-decoration="none" x="117" y="583.5">text: String[1]</text></g></g><g transform="translate(-46,-110) scale(1,1)"><rect fill="#C0C0C0" stroke="none" x="591" y="479" width="132" height="87" opacity="0.2"/></g><g transform="translate(-46,-110) scale(1,1)"><rect fill="#ffffff" stroke="none" x="584" y="472" width="132" height="87"/></g><g transform="translate(-46,-110) scale(1,1)"><path fill="none" stroke="#000000" d="M 584 472 L 716 472 L 716 559 L 584 559 L 584 472 Z Z" stroke-miterlimit="10"/></g><g transform="translate(-46,-110) scale(1,1)"><path fill="none" stroke="#000000" d="M 584 497 L 716 497" stroke-miterlimit="10"/></g><g transform="translate(-46,-110) scale(1,1)"><path fill="none" stroke="#000000" d="M 584 550 L 716 550" stroke-miterlimit="10"/></g><g transform="translate(-46,-110) scale(1,1)"><g><path fill="none" stroke="none"/><text fill="#000000" stroke="none" font-family="Arial" font-size="13px" font-style="normal" font-weight="bold" text-decoration="none" x="635.5" y="491.5">Todo</text></g></g><g transform="translate(-46,-110) scale(1,1)"><g><path fill="none" stroke="none"/><text fill="#000000" stroke="none" font-family="Arial" font-size="13px" font-style="normal" font-weight="normal" text-decoration="none" x="589" y="514.5">+id: ID</text></g></g><g transform="translate(-46,-110) scale(1,1)"><g><path fill="none" stroke="none"/><text fill="#000000" stroke="none" font-family="Arial" font-size="13px" font-style="normal" font-weight="normal" text-decoration="none" x="589" y="529.5">+text: String</text></g></g><g transform="translate(-46,-110) scale(1,1)"><g><path fill="none" stroke="none"/><text fill="#000000" stroke="none" font-family="Arial" font-size="13px" font-style="normal" font-weight="normal" text-decoration="none" x="589" y="544.5">+completed: Boolean</text></g></g><g transform="translate(-46,-110) scale(1,1)"><rect fill="#C0C0C0" stroke="none" x="335" y="503" width="130" height="57" opacity="0.2"/></g><g transform="translate(-46,-110) scale(1,1)"><rect fill="#ffffff" stroke="none" x="328" y="496" width="130" height="57"/></g><g transform="translate(-46,-110) scale(1,1)"><path fill="none" stroke="#000000" d="M 328 496 L 458 496 L 458 553 L 328 553 L 328 496 Z Z" stroke-miterlimit="10"/></g><g transform="translate(-46,-110) scale(1,1)"><path fill="none" stroke="#000000" d="M 328 521 L 458 521" stroke-miterlimit="10"/></g><g transform="translate(-46,-110) scale(1,1)"><g><path fill="none" stroke="none"/><text fill="#000000" stroke="none" font-family="Arial" font-size="13px" font-style="normal" font-weight="bold" text-decoration="none" x="336" y="515.5">CreateTodoPayload</text></g></g><g transform="translate(-46,-110) scale(1,1)"><g><path fill="none" stroke="none"/><text fill="#000000" stroke="none" font-family="Arial" font-size="13px" font-style="normal" font-weight="normal" text-decoration="none" x="333" y="538.5">+todo: Todo[1]</text></g></g><g transform="translate(-46,-110) scale(1,1)"><rect fill="#C0C0C0" stroke="none" x="63" y="431" width="183" height="70" opacity="0.2"/></g><g transform="translate(-46,-110) scale(1,1)"><rect fill="#ffffff" stroke="none" x="56" y="424" width="183" height="70"/></g><g transform="translate(-46,-110) scale(1,1)"><path fill="none" stroke="#000000" d="M 56 424 L 239 424 L 239 494 L 56 494 L 56 424 Z Z" stroke-miterlimit="10"/></g><g transform="translate(-46,-110) scale(1,1)"><path fill="none" stroke="#000000" d="M 56 462 L 239 462" stroke-miterlimit="10"/></g><g transform="translate(-46,-110) scale(1,1)"><path fill="none" stroke="#000000" d="M 56 485 L 239 485" stroke-miterlimit="10"/></g><g transform="translate(-46,-110) scale(1,1)"><g><path fill="none" stroke="none"/><text fill="#000000" stroke="none" font-family="Arial" font-size="13px" font-style="normal" font-weight="normal" text-decoration="none" x="126.5" y="441.5">«input»</text></g></g><g transform="translate(-46,-110) scale(1,1)"><g><path fill="none" stroke="none"/><text fill="#000000" stroke="none" font-family="Arial" font-size="13px" font-style="normal" font-weight="bold" text-decoration="none" x="68" y="456.5">ToggleTodoCompletedInput</text></g></g><g transform="translate(-46,-110) scale(1,1)"><g><path fill="none" stroke="none"/><text fill="#000000" stroke="none" font-family="Arial" font-size="13px" font-style="normal" font-weight="normal" text-decoration="none" x="61" y="479.5">+id: ID[1]</text></g></g><g transform="translate(-46,-110) scale(1,1)"><rect fill="#C0C0C0" stroke="none" x="335" y="431" width="201" height="57" opacity="0.2"/></g><g transform="translate(-46,-110) scale(1,1)"><rect fill="#ffffff" stroke="none" x="328" y="424" width="201" height="57"/></g><g transform="translate(-46,-110) scale(1,1)"><path fill="none" stroke="#000000" d="M 328 424 L 529 424 L 529 481 L 328 481 L 328 424 Z Z" stroke-miterlimit="10"/></g><g transform="translate(-46,-110) scale(1,1)"><path fill="none" stroke="#000000" d="M 328 449 L 529 449" stroke-miterlimit="10"/></g><g transform="translate(-46,-110) scale(1,1)"><path fill="none" stroke="#000000" d="M 328 472 L 529 472" stroke-miterlimit="10"/></g><g transform="translate(-46,-110) scale(1,1)"><g><path fill="none" stroke="none"/><text fill="#000000" stroke="none" font-family="Arial" font-size="13px" font-style="normal" font-weight="bold" text-decoration="none" x="340" y="443.5">ToggleTodoCompletedPayload</text></g></g><g transform="translate(-46,-110) scale(1,1)"><g><path fill="none" stroke="none"/><text fill="#000000" stroke="none" font-family="Arial" font-size="13px" font-style="normal" font-weight="normal" text-decoration="none" x="333" y="466.5">+todo: Todo</text></g></g><g transform="translate(-46,-110) scale(1,1)"><path fill="none" stroke="#000000" d="M 354 279 L 357 178" stroke-miterlimit="10"/></g><g transform="translate(-46,-110) scale(1,1)"><path fill="#000000" stroke="none" d="M 360.90593346944127 188.28317478857082 L 357 178 L 352.49060941798047 188.03321466823039 L 356.3468227281343 199.99030148614426"/></g><g transform="translate(-46,-110) scale(1,1)"><path fill="none" stroke="#000000" d="M 360.90593346944127 188.28317478857082 L 357 178 L 352.49060941798047 188.03321466823039 L 356.3468227281343 199.99030148614426 L 360.90593346944127 188.28317478857082" stroke-miterlimit="10"/></g><g transform="translate(-46,-110) scale(1,1)"><path fill="none" stroke="#000000" d="M 350.09406653055873 268.7168252114292 L 354 279 L 358.50939058201953 268.9667853317696" stroke-miterlimit="10"/></g><g transform="translate(-46,-110) scale(1,1)"><g><path fill="none" stroke="none"/><text fill="#000000" stroke="none" font-family="Arial" font-size="13px" font-style="normal" font-weight="normal" text-decoration="none" x="310.5" y="233.5">+mutation</text></g></g><g transform="translate(-46,-110) scale(1,1)"><g><path fill="none" stroke="none"/><text fill="#000000" stroke="none" font-family="Arial" font-size="13px" font-style="normal" font-weight="normal" text-decoration="none" x="363.5" y="263.5">1</text></g></g></g></svg>