<svg version="1.1" xmlns="http://www.w3.org/2000/svg" xmlns:xlink="http://www.w3.org/1999/xlink" width="524" height="316"><defs/><g><g transform="translate(-142,-70) scale(1,1)"><rect fill="#C0C0C0" stroke="none" x="231" y="95" width="127" height="57" opacity="0.2"/></g><g transform="translate(-142,-70) scale(1,1)"><rect fill="#ffffff" stroke="none" x="224" y="88" width="127" height="57"/></g><g transform="translate(-142,-70) scale(1,1)"><path fill="none" stroke="#000000" d="M 224 88 L 351 88 L 351 145 L 224 145 L 224 88 Z Z" stroke-miterlimit="10"/></g><g transform="translate(-142,-70) scale(1,1)"><path fill="none" stroke="#000000" d="M 224 126 L 351 126" stroke-miterlimit="10"/></g><g transform="translate(-142,-70) scale(1,1)"><path fill="none" stroke="#000000" d="M 224 136 L 351 136" stroke-miterlimit="10"/></g><g transform="translate(-142,-70) scale(1,1)"><g><path fill="none" stroke="none"/><text fill="#000000" stroke="none" font-family="Arial" font-size="13px" font-style="normal" font-weight="normal" text-decoration="none" x="265" y="105.5">«union»</text></g></g><g transform="translate(-142,-70) scale(1,1)"><g><path fill="none" stroke="none"/><text fill="#000000" stroke="none" font-family="Arial" font-size="13px" font-style="normal" font-weight="bold" text-decoration="none" x="236.5" y="120.5">AnimalUnionType</text></g></g><g transform="translate(-142,-70) scale(1,1)"><rect fill="#C0C0C0" stroke="none" x="343" y="311" width="88" height="72" opacity="0.2"/></g><g transform="translate(-142,-70) scale(1,1)"><rect fill="#ffffff" stroke="none" x="336" y="304" width="88" height="72"/></g><g transform="translate(-142,-70) scale(1,1)"><path fill="none" stroke="#000000" d="M 336 304 L 424 304 L 424 376 L 336 376 L 336 304 Z Z" stroke-miterlimit="10"/></g><g transform="translate(-142,-70) scale(1,1)"><path fill="none" stroke="#000000" d="M 336 329 L 424 329" stroke-miterlimit="10"/></g><g transform="translate(-142,-70) scale(1,1)"><path fill="none" stroke="#000000" d="M 336 367 L 424 367" stroke-miterlimit="10"/></g><g transform="translate(-142,-70) scale(1,1)"><g><path fill="none" stroke="none"/><text fill="#000000" stroke="none" font-family="Arial" font-size="13px" font-style="normal" font-weight="bold" text-decoration="none" x="368.5" y="323.5">Dog</text></g></g><g transform="translate(-142,-70) scale(1,1)"><g><path fill="none" stroke="none"/><text fill="#000000" stroke="none" font-family="Arial" font-size="13px" font-style="normal" font-weight="normal" text-decoration="none" x="341" y="346.5">+f1[1]</text></g></g><g transform="translate(-142,-70) scale(1,1)"><g><path fill="none" stroke="none"/><text fill="#000000" stroke="none" font-family="Arial" font-size="13px" font-style="normal" font-weight="normal" text-decoration="none" x="341" y="361.5">+f2</text></g></g><g transform="translate(-142,-70) scale(1,1)"><rect fill="#C0C0C0" stroke="none" x="159" y="311" width="36" height="44" opacity="0.2"/></g><g transform="translate(-142,-70) scale(1,1)"><rect fill="#ffffff" stroke="none" x="152" y="304" width="36" height="44"/></g><g transform="translate(-142,-70) scale(1,1)"><path fill="none" stroke="#000000" d="M 152 304 L 188 304 L 188 348 L 152 348 L 152 304 Z Z" stroke-miterlimit="10"/></g><g transform="translate(-142,-70) scale(1,1)"><path fill="none" stroke="#000000" d="M 152 329 L 188 329" stroke-miterlimit="10"/></g><g transform="translate(-142,-70) scale(1,1)"><path fill="none" stroke="#000000" d="M 152 339 L 188 339" stroke-miterlimit="10"/></g><g transform="translate(-142,-70) scale(1,1)"><g><path fill="none" stroke="none"/><text fill="#000000" stroke="none" font-family="Arial" font-size="13px" font-style="normal" font-weight="bold" text-decoration="none" x="160" y="323.5">Cat</text></g></g><g transform="translate(-142,-70) scale(1,1)"><path fill="none" stroke="#000000" d="M 270 146 L 183 303" stroke-miterlimit="10" stroke-dasharray="3"/></g><g transform="translate(-142,-70) scale(1,1)"><path fill="none" stroke="#000000" d="M 184.2438229560037 292.070548757869 L 183 303 L 191.60780473474426 296.15122655882715" stroke-miterlimit="10"/></g><g transform="translate(-142,-70) scale(1,1)"><path fill="none" stroke="#000000" d="M 299 146 L 365 303" stroke-miterlimit="10" stroke-dasharray="3"/></g><g transform="translate(-142,-70) scale(1,1)"><path fill="none" stroke="#000000" d="M 357.18106854370876 295.26279696002365 L 365 303 L 364.94220928260813 292.0001518086392" stroke-miterlimit="10"/></g><g transform="translate(-142,-70) scale(1,1)"><rect fill="#C0C0C0" stroke="none" x="503" y="87" width="88" height="70" opacity="0.2"/></g><g transform="translate(-142,-70) scale(1,1)"><rect fill="#ffffff" stroke="none" x="496" y="80" width="88" height="70"/></g><g transform="translate(-142,-70) scale(1,1)"><path fill="none" stroke="#000000" d="M 496 80 L 584 80 L 584 150 L 496 150 L 496 80 Z Z" stroke-miterlimit="10"/></g><g transform="translate(-142,-70) scale(1,1)"><path fill="none" stroke="#000000" d="M 496 118 L 584 118" stroke-miterlimit="10"/></g><g transform="translate(-142,-70) scale(1,1)"><path fill="none" stroke="#000000" d="M 496 141 L 584 141" stroke-miterlimit="10"/></g><g transform="translate(-142,-70) scale(1,1)"><g><path fill="none" stroke="none"/><text fill="#000000" stroke="none" font-family="Arial" font-size="13px" font-style="normal" font-weight="normal" text-decoration="none" x="517.5" y="97.5">«union»</text></g></g><g transform="translate(-142,-70) scale(1,1)"><g><path fill="none" stroke="none"/><text fill="#000000" stroke="none" font-family="Arial" font-size="13px" font-style="normal" font-weight="bold" text-decoration="none" x="504.5" y="112.5">InvalidUnion</text></g></g><g transform="translate(-142,-70) scale(1,1)"><g><path fill="none" stroke="none"/><text fill="#000000" stroke="none" font-family="Arial" font-size="13px" font-style="normal" font-weight="normal" text-decoration="none" x="501" y="135.5">+Attribute1</text></g></g><g transform="translate(-142,-70) scale(1,1)"><path fill="#ffffff" stroke="none" d="M 488 224 L 645 224 L 655 234 L 655 303 L 488 303 L 488 224"/></g><g transform="translate(-142,-70) scale(1,1)"><path fill="none" stroke="#000000" d="M 488 224 L 645 224 L 655 234 L 655 303 L 488 303 L 488 224 L 488 224" stroke-miterlimit="10"/></g><g transform="translate(-142,-70) scale(1,1)"><path fill="none" stroke="#000000" d="M 645 224 L 645 234 L 655 234 L 645 224" stroke-miterlimit="10"/></g><g transform="translate(-142,-70) scale(1,1)"><g><path fill="none" stroke="none"/><text fill="#000000" stroke="none" font-family="Arial" font-size="13px" font-style="normal" font-weight="normal" text-decoration="none" x="493" y="242">Unions cannot hold</text><text fill="#000000" stroke="none" font-family="Arial" font-size="13px" font-style="normal" font-weight="normal" text-decoration="none" x="493" y="255">attributes nor associations</text></g></g><g transform="translate(-142,-70) scale(1,1)"><g><path fill="none" stroke="none"/><text fill="#000000" stroke="none" font-family="Arial" font-size="13px" font-style="normal" font-weight="normal" text-decoration="none" x="493" y="270">They need at least one</text><text fill="#000000" stroke="none" font-family="Arial" font-size="13px" font-style="normal" font-weight="normal" text-decoration="none" x="493" y="283">dependency type</text></g></g><g transform="translate(-142,-70) scale(1,1)"><path fill="none" stroke="#000000" d="M 514 151 L 406 303" stroke-miterlimit="10"/></g></g></svg>